#!OML:ASF H:\Punching\Project 1\Capture day 1\Session 1\female.ASF
:FULLY-SPECIFIED
:DEGREES
2960
root 2.52624 14.4049 -1.36418 17.9095 7.04012 6.27267
lowerback -4.60067 -2.60937 -5.19291
upperback -8.26494 -3.38458 1.52821
thorax -5.6649 -1.33439 4.5042
lowerneck -16.2778 0.0022345 6.00119
upperneck 35.4936 -0.68367 -3.67516
head 15.0529 0.0174589 -2.71884
rclavicle 3.39673e-014 1.43125e-014
rhumerus 9.44905 13.9378 -58.2217
rradius 134.177
rwrist -18.2257
rhand -30.1754 10.6291
rfingers 7.12502
rthumb -3.48687 -19.3221
lclavicle 3.39673e-014 1.43125e-014
lhumerus 4.80682 -32.0808 71.354
lradius 137.519
lwrist 1.16734
lhand -25.9987 3.65104
lfingers 7.12502
lthumb 0.54701 33.6301
rfemur -62.706 -13.5298 7.70181
rtibia 56.6291
rfoot -11.5976 -8.0787
rtoes -13.7773
lfemur -1.4109 -11.249 -24.622
ltibia 22.2551
lfoot -38.2241 32.5564
ltoes -5.1157
2961
root 2.49492 14.3816 -1.29654 17.8828 6.61095 6.24266
lowerback -4.7306 -2.80958 -5.27263
upperback -8.32893 -3.64519 1.6035
thorax -5.62237 -1.45907 4.62034
lowerneck -16.331 0.23948 6.21515
upperneck 35.6313 -0.343858 -3.85403
head 15.1543 0.165781 -2.78104
rclavicle 2.87244e-014 -7.95139e-016
rhumerus 9.16841 13.8017 -57.9427
rradius 134.253
rwrist -18.4668
rhand -30.1224 10.447
rfingers 7.12502
rthumb -3.43565 -19.5051
lclavicle 2.87244e-014 -7.95139e-016
lhumerus 4.83936 -32.2736 71.6514
lradius 137.58
lwrist 0.927859
lhand -26.0946 4.05658
lfingers 7.12502
lthumb 0.45438 34.0358
rfemur -62.9189 -13.3498 8.00471
rtibia 56.5192
rfoot -11.8938 -9.57269
rtoes -13.7733
lfemur -0.889027 -11.3927 -24.6905
ltibia 21.9994
lfoot -38.514 32.9399
ltoes -5.41485
2962
root 2.46089 14.3567 -1.22497 17.8656 6.16277 6.22606
lowerback -4.87876 -3.01096 -5.37767
upperback -8.39908 -3.9061 1.67882
thorax -5.57372 -1.58263 4.74869
lowerneck -16.3783 0.483272 6.43393
upperneck 35.7584 0.0113929 -4.04891
head 15.2528 0.318594 -2.84787
rclavicle 3.33213e-014 1.59028e-015
rhumerus 8.92115 13.6357 -57.5978
rradius 134.317
rwrist -18.7151
rhand -30.0724 10.2841
rfingers 7.12502
rthumb -3.38742 -19.6687
lclavicle 3.33213e-014 1.59028e-015
lhumerus 4.86096 -32.4504 71.9491
lradius 137.65
lwrist 0.729052
lhand -26.2046 4.43557
lfingers 7.12502
lthumb 0.348121 34.415
rfemur -63.154 -13.1953 8.36494
rtibia 56.4364
rfoot -12.048 -11.044
rtoes -13.7422
lfemur -0.344123 -11.5573 -24.7717
ltibia 21.7391
lfoot -38.8268 33.2922
ltoes -5.73904
2963
root 2.42398 14.3301 -1.14954 17.8559 5.68711 6.22347
lowerback -5.04353 -3.21163 -5.51281
upperback -8.48055 -4.16467 1.75686
thorax -5.52509 -1.70305 4.89492
lowerneck -16.4051 0.735087 6.65548
upperneck 35.8768 0.387756 -4.26374
head 15.3466 0.477598 -2.91957
rclavicle -2.54693e-014 -2.22639e-014
rhumerus 8.70643 13.4501 -57.1833
rradius 134.373
rwrist -18.954
rhand -30.0084 10.0938
rfingers 7.12502
rthumb -3.32554 -19.86
lclavicle -2.54693e-014 -2.22639e-014
lhumerus 4.85718 -32.5934 72.2555
lradius 137.716
lwrist 0.58175
lhand -26.3093 4.72363
lfingers 7.12502
lthumb 0.247008 34.7032
rfemur -63.4145 -13.0517 8.77605
rtibia 56.41
rfoot -12.0883 -12.3817
rtoes -13.6631
lfemur 0.228808 -11.7292 -24.8662
ltibia 21.4678
lfoot -39.1303 33.6153
ltoes -6.14994
2964
root 2.38445 14.3016 -1.06999 17.8415 5.18365 6.235
lowerback -5.22211 -3.40871 -5.67289
upperback -8.56756 -4.4171 1.83505
thorax -5.47248 -1.81908 5.05334
lowerneck -16.4126 0.992526 6.87465
upperneck 35.9895 0.78151 -4.49311
head 15.4375 0.64139 -2.99379
rclavicle -2.47487e-014 -1.51076e-014
rhumerus 8.52913 13.2567 -56.6981
rradius 134.396
rwrist -19.1298
rhand -29.9539 9.8997
rfingers 7.12502
rthumb -3.2729 -20.0549
lclavicle -2.47487e-014 -1.51076e-014
lhumerus 4.83542 -32.6848 72.5659
lradius 137.76
lwrist 0.482971
lhand -26.4081 4.87495
lfingers 7.12502
lthumb 0.151563 34.8546
rfemur -63.6885 -12.9176 9.23565
rtibia 56.4684
rfoot -12.0466 -13.491
rtoes -13.4143
lfemur 0.848925 -11.8917 -24.9765
ltibia 21.1754
lfoot -39.4337 33.8887
ltoes -6.60303
2965
root 2.34233 14.271 -0.986442 17.8158 4.64811 6.25508
lowerback -5.40668 -3.59696 -5.84843
upperback -8.6588 -4.65686 1.91097
thorax -5.42032 -1.92792 5.21671
lowerneck -16.4182 1.2554 7.09423
upperneck 36.1111 1.18953 -4.73461
head 15.5366 0.809626 -3.07125
rclavicle -1.53561e-014 -1.19271e-014
rhumerus 8.38255 13.0485 -56.1495
rradius 134.396
rwrist -19.263
rhand -29.8921 9.64422
rfingers 7.12502
rthumb -3.21327 -20.3113
lclavicle -1.53561e-014 -1.19271e-014
lhumerus 4.80413 -32.723 72.8691
lradius 137.781
lwrist 0.421673
lhand -26.4943 4.91506
lfingers 7.12502
lthumb 0.0683138 34.8948
rfemur -63.9746 -12.785 9.75227
rtibia 56.6335
rfoot -11.944 -14.3224
rtoes -12.9301
lfemur 1.52463 -12.0255 -25.0987
ltibia 20.8529
lfoot -39.7112 34.1157
ltoes -7.1295
2966
root 2.29767 14.2383 -0.898801 17.7685 4.08317 6.28188
lowerback -5.58368 -3.77552 -6.03286
upperback -8.75424 -4.88374 1.98397
thorax -5.37678 -2.02951 5.38173
lowerneck -16.419 1.52548 7.30837
upperneck 36.2431 1.61445 -4.98138
head 15.6447 0.983603 -3.14756
rclavicle -9.6659e-015 -2.22639e-014
rhumerus 8.2533 12.8275 -55.5424
rradius 134.382
rwrist -19.3545
rhand -29.8157 9.3669
rfingers 7.12502
rthumb -3.13943 -20.5897
lclavicle -9.6659e-015 -2.22639e-014
lhumerus 4.7617 -32.7018 73.1595
lradius 137.778
lwrist 0.37995
lhand -26.5643 4.87536
lfingers 7.12502
lthumb 0.000692983 34.8551
rfemur -64.2581 -12.648 10.321
rtibia 56.9211
rfoot -11.8047 -14.8337
rtoes -12.2012
lfemur 2.26775 -12.1196 -25.2331
ltibia 20.494
lfoot -39.9437 34.3078
ltoes -7.75079
2967
root 2.2504 14.2042 -0.80721 17.6945 3.48569 6.31315
lowerback -5.75295 -3.94212 -6.22087
upperback -8.8506 -5.09481 2.05206
thorax -5.33942 -2.12289 5.54353
lowerneck -16.4169 1.80142 7.51296
upperneck 36.3893 2.05339 -5.22696
head 15.7641 1.16242 -3.21984
rclavicle 6.46547e-014 1.11319e-014
rhumerus 8.13061 12.5954 -54.8807
rradius 134.36
rwrist -19.4335
rhand -29.7367 9.09402
rfingers 7.12502
rthumb -3.06314 -20.8637
lclavicle 6.46547e-014 1.11319e-014
lhumerus 4.71045 -32.6107 73.4287
lradius 137.75
lwrist 0.35233
lhand -26.6192 4.78489
lfingers 7.12502
lthumb -0.0523368 34.7646
rfemur -64.5311 -12.481 10.9183
rtibia 57.3386
rfoot -11.6671 -15.0154
rtoes -11.2387
lfemur 3.07893 -12.1644 -25.3805
ltibia 20.1007
lfoot -40.1304 34.4709
ltoes -8.44939
2968
root 2.20028 14.1693 -0.711997 17.5966 2.85801 6.3443
lowerback -5.90756 -4.0921 -6.40223
upperback -8.94674 -5.28468 2.1109
thorax -5.31296 -2.20586 5.69277
lowerneck -16.4324 2.08117 7.70862
upperneck 36.5545 2.49868 -5.46328
head 15.9016 1.3439 -3.28627
rclavicle 2.11209e-014 1.11319e-014
rhumerus 8.00855 12.3382 -54.1738
rradius 134.34
rwrist -19.5286
rhand -29.6572 8.85084
rfingers 7.12502
rthumb -2.98637 -21.108
lclavicle 2.11209e-014 1.11319e-014
lhumerus 4.65384 -32.4883 73.662
lradius 137.716
lwrist 0.271581
lhand -26.6651 4.76382
lfingers 7.12502
lthumb -0.0966177 34.7435
rfemur -64.7906 -12.25 11.5047
rtibia 57.8858
rfoot -11.5292 -14.9691
rtoes -10.0994
lfemur 3.94618 -12.1458 -25.5307
ltibia 19.6766
lfoot -40.2491 34.6027
ltoes -9.23973
2969
root 2.14683 14.1346 -0.613803 17.4821 2.19922 6.3716
lowerback -6.05022 -4.22772 -6.57593
upperback -9.04622 -5.45632 2.16337
thorax -5.29948 -2.27968 5.83207
lowerneck -16.4507 2.36538 7.88946
upperneck 36.7305 2.95244 -5.68483
head 16.0498 1.52869 -3.34244
rclavicle 4.71617e-014 2.70347e-014
rhumerus 7.88558 12.0705 -53.4342
rradius 134.326
rwrist -19.6557
rhand -29.5666 8.60311
rfingers 7.12502
rthumb -2.89887 -21.3569
lclavicle 4.71617e-014 2.70347e-014
lhumerus 4.56772 -32.357 73.8581
lradius 137.702
lwrist 0.109377
lhand -26.716 4.92145
lfingers 7.12502
lthumb -0.14581 34.9011
rfemur -65.0391 -11.9071 12.0216
rtibia 58.5555
rfoot -11.4065 -14.8053
rtoes -8.81725
lfemur 4.84821 -12.0498 -25.67
ltibia 19.2356
lfoot -40.2658 34.7086
ltoes -10.1859
